# xmcd
#
# Track frame offsets: 
#        150
#        12942
#        23507
#        37917
#        51470
#        65840
#        80087
#        94810
#        106987
#        114455
#        126145
#        137550
#        148892
#        156070
#        163465
#        174287
#        192245
#        207847
#        220840
#        234875
#        250142
#        262975
#        278347
#        290525
#        303180
#
# Disc length: 4209 seconds
#
# Revision: 0
# Processed by: cddbd v1.5.1PL2 Copyright (c) Steve Scherf et al.
# Submitted via: ExactAudioCopy v0.95b4
#
DISCID=5f106f19
DTITLE=Leroy Anderson - Blue Tango
DYEAR=2000
DGENRE=Tango
TTITLE0=Blue Tango
TTITLE1=Bugler's Holiday
TTITLE2=The First Day of Spring
TTITLE3=Sandpaper Ballet
TTITLE4=The Phantom Regiment
TTITLE5=Saraband
TTITLE6=Fiddle-Faddle
TTITLE7=The Waltzing Cat
TTITLE8=The Typewriter
TTITLE9=Belle of The Ball
TTITLE10=Plink, Plink, Plunk!
TTITLE11=Forgotten Dreams
TTITLE12=Jazz Pizzicato
TTITLE13=Jazz Legato
TTITLE14=The Syncopated Clock
TTITLE15=Serenata
TTITLE16=Horse and Buggy
TTITLE17=A Trumpeter's Lullaby
TTITLE18=Song of the Bell
TTITLE19=Summer Skies
TTITLE20=Promenade
TTITLE21=The Golden Years
TTITLE22=Sleigh Ride
TTITLE23=Clarinet Candy
TTITLE24=Arietta
EXTD=
EXTT0=
EXTT1=
EXTT2=
EXTT3=
EXTT4=
EXTT5=
EXTT6=
EXTT7=
EXTT8=
EXTT9=
EXTT10=
EXTT11=
EXTT12=
EXTT13=
EXTT14=
EXTT15=
EXTT16=
EXTT17=
EXTT18=
EXTT19=
EXTT20=
EXTT21=
EXTT22=
EXTT23=
EXTT24=
PLAYORDER=
